<svg width="1024" height="1024" viewBox="0 0 1024 1024" fill="none" xmlns="http://www.w3.org/2000/svg">
  <defs>
    <radialGradient id="sky3" cx="0.5" cy="0.24" r="0.62" gradientUnits="objectBoundingBox">
      <stop stop-color="#fff7ed"/>
      <stop offset="1" stop-color="#f97316"/>
    </radialGradient>
    <linearGradient id="water3" x1="512" y1="640" x2="512" y2="1024" gradientUnits="userSpaceOnUse">
      <stop stop-color="#38bdf8"/>
      <stop offset="1" stop-color="#1e40af"/>
    </linearGradient>
  </defs>
  <rect width="1024" height="1024" rx="200" fill="#111827"/>
  <circle cx="512" cy="298" r="284" fill="url(#sky3)"/>
  <path d="M402 464C402 464 472 346 512 346C552 346 622 464 622 464" stroke="#ffffff" stroke-width="16" opacity="0.45"/>
  <path d="M420 374H604L586 802H438L420 374Z" fill="#e5e7eb" stroke="#0f172a" stroke-width="24"/>
  <path d="M438 494H594" stroke="#0f172a" stroke-width="20" stroke-linecap="round"/>
  <path d="M512 246C520 246 526 252 526 260C526 268 520 274 512 274C504 274 498 268 498 260C498 252 504 246 512 246Z" fill="#fb923c"/>
  <path d="M462 522H562L556 786H458L462 522Z" fill="#0f172a"/>
  <path d="M272 756C272 756 382 712 512 712C642 712 752 756 752 756C752 756 796 784 826 804C856 824 896 862 896 862H128C128 862 168 826 198 804C228 782 272 756 272 756Z" fill="url(#water3)"/>
  <path d="M214 820C264 800 332 790 390 812C448 834 504 824 562 808C620 792 672 782 736 760" stroke="#ffffff" stroke-width="18" stroke-linecap="round" opacity="0.92"/>
  <circle cx="512" cy="306" r="48" fill="#ffffff" opacity="0.16"/>
  <path d="M512 346L512 302" stroke="#ffffff" stroke-width="16" stroke-linecap="round" opacity="0.8"/>
</svg>
